<!--?xml version="1.0" standalone="no"?-->
              <svg id="sw-js-blob-svg" viewBox="0 0 100 100" xmlns="http://www.w3.org/2000/svg" version="1.1">
                    <defs> 
                        <linearGradient id="sw-gradient" x1="0" x2="1" y1="1" y2="0">
                            <stop id="stop1" stop-color="rgba(255, 230, 234, 1)" offset="0%"></stop>
                            <stop id="stop2" stop-color="rgba(249.379, 139.473, 157.058, 1)" offset="100%"></stop>
                        </linearGradient>
                    </defs>
                <path fill="none" d="M24.1,-29.2C28.9,-24.7,28.9,-14.9,30.8,-5.3C32.7,4.4,36.5,13.8,34.4,22.2C32.3,30.6,24.4,38,15.5,40.2C6.6,42.3,-3.3,39.3,-10.6,34.3C-17.9,29.4,-22.7,22.6,-26.8,15.5C-30.8,8.4,-34.2,0.9,-34.4,-7.5C-34.7,-15.9,-31.8,-25.2,-25.6,-29.5C-19.3,-33.8,-9.7,-33.1,0,-33.1C9.6,-33.1,19.3,-33.8,24.1,-29.2Z" width="100%" height="100%" transform="translate(50 50)" stroke-width="1" style="transition: 0.3s;" stroke="url(#sw-gradient)"></path>
              </svg>