<svg id="visual" viewBox="0 0 900 600" width="900" height="600" xmlns="http://www.w3.org/2000/svg" xmlns:xlink="http://www.w3.org/1999/xlink" version="1.1"><rect x="0" y="0" width="900" height="600" fill="#FFE6EA"></rect><defs><linearGradient id="grad1_0" x1="33.3%" y1="0%" x2="100%" y2="100%"><stop offset="20%" stop-color="#ffe6ea" stop-opacity="1"></stop><stop offset="80%" stop-color="#ffe6ea" stop-opacity="1"></stop></linearGradient></defs><defs><linearGradient id="grad2_0" x1="0%" y1="0%" x2="66.7%" y2="100%"><stop offset="20%" stop-color="#ffe6ea" stop-opacity="1"></stop><stop offset="80%" stop-color="#ffe6ea" stop-opacity="1"></stop></linearGradient></defs><g transform="translate(900, 0)"><path d="M0 486.7C-74.6 490.9 -149.2 495.1 -186.3 449.7C-223.3 404.3 -222.9 309.2 -260.2 260.2C-297.5 211.2 -372.6 208.3 -416.7 172.6C-460.7 136.9 -473.7 68.4 -486.7 0L0 0Z" fill="#fff"></path></g><g transform="translate(0, 600)"><path d="M0 -486.7C57 -465.3 114 -443.8 175.7 -424.1C237.3 -404.4 303.5 -386.5 344.2 -344.2C384.8 -301.9 399.9 -235.2 419.4 -173.7C438.9 -112.3 462.8 -56.2 486.7 0L0 0Z" fill="#fff"></path></g></svg>